<svg version="1.1" id="Layer_1" xmlns="http://www.w3.org/2000/svg" xmlns:xlink="http://www.w3.org/1999/xlink" x="0px" y="0px"
	 width="100%" viewBox="0 0 369 137" enable-background="new 0 0 369 137" xml:space="preserve">
<path fill="#FDFDFD" opacity="1.000000" stroke="none" 
	d="
M244.000000,138.000000 
	C162.666672,138.000000 81.833351,138.000000 1.000022,138.000000 
	C1.000015,92.333351 1.000015,46.666698 1.000007,1.000034 
	C123.999969,1.000023 246.999939,1.000023 369.999939,1.000011 
	C369.999939,46.666630 369.999939,92.333260 369.999969,137.999939 
	C328.166656,138.000000 286.333344,138.000000 244.000000,138.000000 
M177.232178,46.278534 
	C177.157227,46.498615 177.082291,46.718693 176.714615,47.165295 
	C176.520599,47.383228 176.505371,47.613018 176.276184,48.599094 
	C176.254471,57.674221 176.155380,66.750099 176.244339,75.824142 
	C176.287537,80.230286 176.682678,84.632973 177.008331,89.695648 
	C177.586136,89.992424 178.163940,90.289200 179.445801,90.964958 
	C186.762100,91.181557 187.201080,90.771713 187.214645,83.675789 
	C187.220490,80.617317 187.215622,77.558838 187.215622,73.263115 
	C192.366745,79.134514 196.648209,83.935402 200.833771,88.818474 
	C202.966095,91.306114 205.348206,92.033882 208.212769,90.281349 
	C212.064346,87.924995 212.612167,85.210663 209.296860,81.759254 
	C204.893051,77.174637 200.060638,73.001732 195.528320,68.760422 
	C200.235458,63.921528 204.025223,60.029766 207.810364,56.133518 
	C212.122589,51.694729 212.471100,49.431446 209.291183,46.577255 
	C206.124283,43.734753 203.573502,44.261814 199.737549,48.576595 
	C195.850800,52.948513 191.976913,57.331898 187.601151,62.270321 
	C187.221817,56.505474 186.910843,51.779137 186.329346,46.630550 
	C185.871994,46.475552 185.414658,46.320553 184.712646,45.442139 
	C182.738312,45.481983 180.763962,45.521828 178.419479,45.522907 
	C178.161453,45.592613 177.977844,45.749428 177.232178,46.278534 
M93.294800,34.034142 
	C92.882111,33.841518 92.469421,33.648895 91.494171,32.866081 
	C81.442177,26.230412 70.325737,24.489378 58.632149,26.123335 
	C56.734890,26.388441 55.064411,28.276499 52.513573,29.127829 
	C51.162811,29.087080 49.642670,28.617441 48.488071,29.073414 
	C39.224628,32.731731 32.038609,38.954418 26.805758,47.398384 
	C26.099779,48.537582 25.902428,49.991982 25.469559,51.300430 
	C27.648088,50.201622 29.176809,48.727070 30.389421,47.027039 
	C35.138199,40.369484 41.187996,35.364967 48.663002,32.030712 
	C50.261345,31.317766 51.690022,30.224447 53.891346,29.099310 
	C55.042717,29.119816 56.235413,29.348183 57.339088,29.128775 
	C68.766045,26.857119 79.402863,29.084364 89.879509,35.042679 
	C90.695572,35.554737 91.511627,36.066795 92.745026,37.065826 
	C94.225723,38.242947 95.706429,39.420071 97.581291,41.156036 
	C100.271179,44.564304 102.961060,47.972576 105.650948,51.380844 
	C105.998726,45.483791 102.215729,42.140408 98.323120,38.119911 
	C96.698036,36.839573 95.072952,35.559235 93.294800,34.034142 
M228.931152,46.106014 
	C228.272812,45.822517 227.614456,45.539017 226.225723,45.082603 
	C224.448578,45.559677 222.671448,46.036751 220.169632,47.094589 
	C220.048569,60.621620 219.910751,74.148582 219.856567,87.675880 
	C219.853897,88.342232 220.581100,89.011497 221.459808,90.328056 
	C223.974274,90.221001 226.488739,90.113945 229.753815,89.747604 
	C230.108459,88.494759 230.762680,87.243927 230.771133,85.988747 
	C230.850281,74.214325 230.860840,62.438812 230.763260,50.664677 
	C230.751846,49.287464 229.967514,47.916649 229.424789,46.529114 
	C229.424789,46.529114 229.308792,46.547985 228.931152,46.106014 
M56.325550,114.114899 
	C81.211647,119.906639 103.273087,103.189911 107.691170,87.923424 
	C105.649399,89.754913 104.331787,90.543259 103.551918,91.695557 
	C92.317184,108.295341 75.613731,115.180397 55.353569,111.077873 
	C44.791618,108.067589 36.244324,102.253014 30.038237,93.083443 
	C29.155933,91.779823 27.804844,90.793480 26.670725,89.660294 
	C26.267900,90.146965 25.865076,90.633644 25.462254,91.120316 
	C32.254456,102.868492 41.997581,110.833923 56.325550,114.114899 
M239.195236,88.650177 
	C240.803787,89.399727 242.412323,90.149277 244.944916,91.048927 
	C252.619217,90.993637 260.293518,90.938339 268.772552,90.981285 
	C269.551605,88.766434 271.062042,86.459145 270.798737,84.376045 
	C270.668701,83.347115 267.322021,82.254211 265.333801,82.022499 
	C260.202606,81.424500 255.017410,81.289780 249.985535,80.044769 
	C249.936615,70.043800 249.887680,60.042835 249.965286,49.276920 
	C248.482666,47.876751 247.038315,45.395126 245.508041,45.340965 
	C243.438782,45.267723 241.303558,47.058548 238.993729,48.961163 
	C239.064224,61.951855 239.134705,74.942543 239.195236,88.650177 
M284.946136,91.049164 
	C292.619354,90.992775 300.292603,90.936378 308.707977,91.004852 
	C309.698334,89.025505 310.688721,87.046158 311.679077,85.066811 
	C309.828125,84.352684 308.004944,83.124626 306.120880,83.022697 
	C300.885315,82.739479 295.624420,82.924431 290.002045,82.924431 
	C290.002045,71.697739 289.979462,61.086098 290.013641,50.474636 
	C290.026520,46.474770 287.753754,45.109653 284.155975,45.046062 
	C280.732758,44.985561 278.884094,46.366753 278.904572,50.042408 
	C278.971222,62.009090 278.950562,73.976410 278.921295,85.943382 
	C278.912781,89.425369 280.322998,91.303871 284.946136,91.049164 
M89.842049,96.809364 
	C90.075432,97.845634 90.308815,98.881897 90.542198,99.918167 
	C91.949242,99.267273 93.642708,98.923859 94.720680,97.919708 
	C113.098907,80.799980 109.491058,49.747292 87.592239,37.245201 
	C75.520073,30.353176 62.937748,28.939995 49.310078,35.011627 
	C47.961872,35.692127 46.613670,36.372623 44.849590,37.616486 
	C22.706013,49.674320 19.611101,83.353973 39.195396,99.146935 
	C53.620201,110.779228 72.101166,112.735596 85.934486,104.094673 
	C83.740669,94.137932 78.312714,85.322227 75.785347,75.459808 
	C75.430084,74.073479 73.361176,73.126297 71.883614,71.500259 
	C71.940155,71.337601 71.996704,71.174934 72.960655,71.112358 
	C76.612396,71.081879 80.264137,71.051407 84.068336,71.502701 
	C83.996132,71.654884 83.923927,71.807060 83.121887,71.922600 
	C82.498627,73.045586 81.116837,74.396927 81.375031,75.254547 
	C83.071404,80.889236 85.048843,86.445175 87.148933,91.944969 
	C87.409775,92.628090 88.934669,92.828552 89.588692,93.742310 
	C89.733078,94.491905 89.877464,95.241501 89.842049,96.809364 
M164.815155,66.600410 
	C160.115387,65.065338 155.342468,63.713829 150.758728,61.887531 
	C149.313324,61.311634 148.374680,59.463825 147.204102,58.198139 
	C148.608276,57.035255 149.991364,54.959518 151.421631,54.926487 
	C153.493301,54.878639 155.549118,56.727928 157.704956,56.984589 
	C159.691605,57.221104 162.464752,57.112335 163.701630,55.920673 
	C165.565811,54.124622 167.527695,51.667328 164.397705,48.557789 
	C159.005035,43.200348 146.298630,42.927498 140.493469,48.269264 
	C133.968246,54.273621 135.093582,67.285118 144.180786,70.253593 
	C147.328613,71.281876 150.686859,71.849594 153.612396,73.304504 
	C155.315384,74.151413 156.350952,76.340408 157.686813,77.925537 
	C155.725632,79.105347 153.625000,81.411041 151.837372,81.189644 
	C149.418091,80.890007 146.971725,78.944901 145.022934,77.171661 
	C142.451462,74.831833 139.817444,75.301964 138.087036,77.275467 
	C136.767029,78.780914 135.751450,82.045197 136.501602,83.623398 
	C140.369171,91.760170 153.860840,94.244354 162.454132,88.801933 
	C169.816223,84.139275 171.029648,75.166138 164.815155,66.600410 
M318.574066,82.843605 
	C324.683258,92.517181 337.709808,94.834160 346.547272,87.819084 
	C354.155273,81.779945 352.724030,69.648651 343.825592,65.728592 
	C340.284515,64.168648 336.413544,63.338528 332.928162,61.681107 
	C331.607971,61.053307 330.036316,58.867023 330.247620,57.690811 
	C330.460449,56.506321 332.779175,54.857090 334.115051,54.910679 
	C336.236053,54.995754 338.426727,56.109516 340.372681,57.179489 
	C343.728729,59.024769 345.591064,57.298088 347.459534,54.841213 
	C349.282288,52.444435 349.237457,50.498989 346.908356,48.388134 
	C341.315308,43.319206 329.412323,42.908108 323.683807,47.712074 
	C316.112885,54.061119 317.744965,67.515327 326.765747,70.241714 
	C330.251373,71.295197 333.825592,72.165634 337.141296,73.617638 
	C338.500610,74.212906 340.340393,76.402374 340.085510,77.375023 
	C339.681915,78.915199 337.535492,81.254936 336.419281,81.103180 
	C333.691437,80.732277 330.812164,79.566330 328.568115,77.931969 
	C323.463531,74.214317 319.377777,75.726715 318.574066,82.843605 
M191.313644,22.550556 
	C187.385620,24.356756 185.363480,27.276184 186.406158,31.667070 
	C187.327255,35.545898 191.263428,38.028435 195.077911,37.398243 
	C199.050842,36.741879 201.823944,33.221077 201.479980,29.269993 
	C201.065063,24.503664 197.813431,22.086124 191.313644,22.550556 
M219.721069,35.784714 
	C225.226868,38.453682 229.508636,37.510429 231.501114,33.189602 
	C233.484543,28.888456 231.763474,23.725203 227.196625,22.814768 
	C224.619354,22.300972 220.854904,23.287827 218.915039,25.032681 
	C215.676163,27.945959 216.382614,31.892645 219.721069,35.784714 
M107.391266,51.507393 
	C107.391266,51.507393 107.502296,51.545124 107.391266,51.507393 
z"/>
<path fill="#1D2326" opacity="1.000000" stroke="none" 
	d="
M83.915878,71.020927 
	C80.264137,71.051407 76.612396,71.081879 72.331711,71.146362 
	C71.830338,71.445534 71.957901,71.710686 72.085472,71.975845 
	C73.361176,73.126297 75.430084,74.073479 75.785347,75.459808 
	C78.312714,85.322227 83.740669,94.137932 85.934494,104.094666 
	C72.101166,112.735596 53.620201,110.779228 39.195396,99.146935 
	C19.611101,83.353973 22.706013,49.674320 45.252457,37.506721 
	C46.499878,37.624050 47.344429,37.851143 48.244064,38.466080 
	C50.445614,49.983742 50.805622,61.003910 47.595139,71.858406 
	C56.117912,69.062637 58.977573,75.299820 61.347775,82.984459 
	C63.542118,90.098915 66.576668,96.954224 69.775856,105.322052 
	C71.214912,101.221603 72.134773,98.600563 73.328392,95.764069 
	C74.418571,93.043091 75.234985,90.537575 76.252563,87.877151 
	C76.304039,87.241371 76.154358,86.760498 76.004669,86.279617 
	C75.971718,86.830582 75.938774,87.381546 75.559486,88.019943 
	C74.043053,90.287437 72.872963,92.467506 71.389359,94.435707 
	C68.841789,88.412720 66.436707,82.657524 64.504318,76.747765 
	C64.068359,75.414467 65.279129,73.542725 65.933090,71.867348 
	C66.221321,71.710930 66.308327,71.606010 66.395340,71.501091 
	C66.177277,71.358871 65.959213,71.216660 65.310440,71.108688 
	C64.216972,71.136383 63.554188,71.122231 62.891457,71.124443 
	C55.296066,71.149841 54.990742,70.863571 54.967060,63.382084 
	C54.940311,54.931400 54.936852,46.480640 55.249184,37.891956 
	C57.275856,37.753998 58.976608,37.753998 60.677361,37.753998 
	C59.707134,36.728439 58.426865,36.261742 57.105408,36.024235 
	C54.748623,35.600647 52.366947,35.315536 49.995682,34.972523 
	C62.937748,28.939995 75.520073,30.353176 87.592239,37.245201 
	C109.491058,49.747292 113.098907,80.799980 94.720680,97.919708 
	C93.642708,98.923859 91.949242,99.267273 90.542198,99.918167 
	C90.308815,98.881897 90.075432,97.845634 90.187897,96.218964 
	C90.867920,93.978638 91.202087,92.328705 91.536247,90.678780 
	C91.118309,90.619789 90.700363,90.560799 90.282417,90.501816 
	C90.146217,91.418762 90.010025,92.335716 89.873833,93.252663 
	C88.934669,92.828552 87.409775,92.628090 87.148933,91.944969 
	C85.048843,86.445175 83.071404,80.889236 81.375031,75.254547 
	C81.116837,74.396927 82.498627,73.045586 83.674362,71.876640 
	C84.307594,71.728203 84.471817,71.552193 84.456284,71.534569 
	C84.292633,71.348831 84.100296,71.188370 83.915878,71.020927 
M72.045799,42.823219 
	C69.760651,39.380112 66.994606,37.030468 62.030579,38.505390 
	C66.447929,40.676430 68.371574,43.936001 67.774857,48.351978 
	C67.140663,53.045258 64.091476,55.573967 59.338451,56.396336 
	C64.159096,59.161537 67.480118,56.229458 70.465149,53.623692 
	C73.480621,50.991344 73.895164,47.314373 72.045799,42.823219 
M93.228188,70.166336 
	C90.566811,74.355286 97.816719,72.541267 96.856232,75.871468 
	C98.396950,74.166519 99.937668,72.461571 102.129501,70.036102 
	C98.621857,70.036102 96.318153,70.036102 93.228188,70.166336 
M94.270676,79.116989 
	C94.107666,80.160408 93.944664,81.203827 93.781654,82.247246 
	C94.347069,82.145599 94.912483,82.043953 95.477890,81.942299 
	C95.149811,80.820946 94.821732,79.699593 94.270676,79.116989 
z"/>
<path fill="#1D2326" opacity="1.000000" stroke="none" 
	d="
M186.599854,47.052803 
	C186.910843,51.779137 187.221817,56.505474 187.601151,62.270321 
	C191.976913,57.331898 195.850800,52.948513 199.737549,48.576595 
	C203.573502,44.261814 206.124283,43.734753 209.291183,46.577255 
	C212.471100,49.431446 212.122589,51.694729 207.810364,56.133518 
	C204.025223,60.029766 200.235458,63.921528 195.528320,68.760422 
	C200.060638,73.001732 204.893051,77.174637 209.296860,81.759254 
	C212.612167,85.210663 212.064346,87.924995 208.212769,90.281349 
	C205.348206,92.033882 202.966095,91.306114 200.833771,88.818474 
	C196.648209,83.935402 192.366745,79.134514 187.215622,73.263115 
	C187.215622,77.558838 187.220490,80.617317 187.214645,83.675789 
	C187.201080,90.771713 186.762100,91.181557 179.042328,90.446030 
	C178.065384,89.630478 177.491928,89.333855 176.918488,89.037231 
	C176.682678,84.632973 176.287537,80.230286 176.244339,75.824142 
	C176.155380,66.750099 176.254471,57.674221 176.681946,48.150467 
	C177.349396,47.417114 177.322617,47.162754 177.007370,46.938770 
	C177.082291,46.718693 177.157227,46.498615 177.748962,46.263550 
	C178.646362,46.177467 178.820984,45.948502 178.789627,45.561668 
	C180.763962,45.521828 182.738312,45.481983 184.922638,46.055466 
	C185.621704,46.796795 186.110764,46.924801 186.599854,47.052803 
z"/>
<path fill="#1E2427" opacity="1.000000" stroke="none" 
	d="
M165.102341,66.847870 
	C171.029648,75.166138 169.816223,84.139275 162.454132,88.801933 
	C153.860840,94.244354 140.369171,91.760170 136.501602,83.623398 
	C135.751450,82.045197 136.767029,78.780914 138.087036,77.275467 
	C139.817444,75.301964 142.451462,74.831833 145.022934,77.171661 
	C146.971725,78.944901 149.418091,80.890007 151.837372,81.189644 
	C153.625000,81.411041 155.725632,79.105347 157.686813,77.925537 
	C156.350952,76.340408 155.315384,74.151413 153.612396,73.304504 
	C150.686859,71.849594 147.328613,71.281876 144.180786,70.253593 
	C135.093582,67.285118 133.968246,54.273621 140.493469,48.269264 
	C146.298630,42.927498 159.005035,43.200348 164.397705,48.557789 
	C167.527695,51.667328 165.565811,54.124622 163.701630,55.920673 
	C162.464752,57.112335 159.691605,57.221104 157.704956,56.984589 
	C155.549118,56.727928 153.493301,54.878639 151.421631,54.926487 
	C149.991364,54.959518 148.608276,57.035255 147.204102,58.198139 
	C148.374680,59.463825 149.313324,61.311634 150.758728,61.887531 
	C155.342468,63.713829 160.115387,65.065338 165.102341,66.847870 
z"/>
<path fill="#1F2528" opacity="1.000000" stroke="none" 
	d="
M318.393799,82.507843 
	C319.377777,75.726715 323.463531,74.214317 328.568115,77.931969 
	C330.812164,79.566330 333.691437,80.732277 336.419281,81.103180 
	C337.535492,81.254936 339.681915,78.915199 340.085510,77.375023 
	C340.340393,76.402374 338.500610,74.212906 337.141296,73.617638 
	C333.825592,72.165634 330.251373,71.295197 326.765747,70.241714 
	C317.744965,67.515327 316.112885,54.061119 323.683807,47.712074 
	C329.412323,42.908108 341.315308,43.319206 346.908356,48.388134 
	C349.237457,50.498989 349.282288,52.444435 347.459534,54.841213 
	C345.591064,57.298088 343.728729,59.024769 340.372681,57.179489 
	C338.426727,56.109516 336.236053,54.995754 334.115051,54.910679 
	C332.779175,54.857090 330.460449,56.506321 330.247620,57.690811 
	C330.036316,58.867023 331.607971,61.053307 332.928162,61.681107 
	C336.413544,63.338528 340.284515,64.168648 343.825592,65.728592 
	C352.724030,69.648651 354.155273,81.779945 346.547272,87.819084 
	C337.709808,94.834160 324.683258,92.517181 318.393799,82.507843 
z"/>
<path fill="#1D2326" opacity="1.000000" stroke="none" 
	d="
M284.022858,90.895943 
	C280.322998,91.303871 278.912781,89.425369 278.921295,85.943382 
	C278.950562,73.976410 278.971222,62.009090 278.904572,50.042408 
	C278.884094,46.366753 280.732758,44.985561 284.155975,45.046062 
	C287.753754,45.109653 290.026520,46.474770 290.013641,50.474636 
	C289.979462,61.086098 290.002045,71.697739 290.002045,82.924431 
	C295.624420,82.924431 300.885315,82.739479 306.120880,83.022697 
	C308.004944,83.124626 309.828125,84.352684 311.679077,85.066811 
	C310.688721,87.046158 309.698334,89.025505 308.029663,90.666489 
	C299.575195,90.517387 291.799042,90.706665 284.022858,90.895943 
z"/>
<path fill="#1C2225" opacity="1.000000" stroke="none" 
	d="
M239.196625,48.049614 
	C241.303558,47.058548 243.438782,45.267723 245.508041,45.340965 
	C247.038315,45.395126 248.482666,47.876751 249.636505,49.973572 
	C249.204742,56.740112 248.973511,62.811489 249.043976,68.879364 
	C249.090790,72.912170 249.568787,76.939972 249.853790,80.970009 
	C255.017410,81.289780 260.202606,81.424500 265.333801,82.022499 
	C267.322021,82.254211 270.668701,83.347115 270.798737,84.376045 
	C271.062042,86.459145 269.551605,88.766434 268.062561,90.656586 
	C259.575348,90.520866 251.798111,90.709846 244.020874,90.898827 
	C242.412323,90.149277 240.803787,89.399727 239.459442,87.975159 
	C239.816452,76.282394 239.952698,65.264702 239.963348,54.246891 
	C239.965332,52.181381 239.465088,50.115383 239.196625,48.049614 
z"/>
<path fill="#1C2225" opacity="1.000000" stroke="none" 
	d="
M229.003204,90.006889 
	C226.488739,90.113945 223.974274,90.221001 221.213684,89.556061 
	C220.943130,74.693977 220.918716,60.603905 220.894302,46.513828 
	C222.671448,46.036751 224.448578,45.559677 226.680054,45.490204 
	C227.859177,46.114529 228.583984,46.331253 229.308792,46.547981 
	C229.308792,46.547985 229.424789,46.529114 229.378143,47.033165 
	C229.222076,61.693775 229.112640,75.850334 229.003204,90.006889 
z"/>
<path fill="#252B2F" opacity="1.000000" stroke="none" 
	d="
M55.998302,111.202164 
	C75.613731,115.180397 92.317184,108.295341 103.551918,91.695557 
	C104.331787,90.543259 105.649399,89.754913 107.691170,87.923424 
	C103.273087,103.189911 81.211647,119.906639 56.073051,113.544357 
	C55.879799,112.383263 55.939049,111.792717 55.998302,111.202164 
z"/>
<path fill="#F78920" opacity="1.000000" stroke="none" 
	d="
M191.673615,22.398643 
	C197.813431,22.086124 201.065063,24.503664 201.479980,29.269993 
	C201.823944,33.221077 199.050842,36.741879 195.077911,37.398243 
	C191.263428,38.028435 187.327255,35.545898 186.406158,31.667070 
	C185.363480,27.276184 187.385620,24.356756 191.673615,22.398643 
z"/>
<path fill="#90C844" opacity="1.000000" stroke="none" 
	d="
M219.444244,35.519779 
	C216.382614,31.892645 215.676163,27.945959 218.915039,25.032681 
	C220.854904,23.287827 224.619354,22.300972 227.196625,22.814768 
	C231.763474,23.725203 233.484543,28.888456 231.501114,33.189602 
	C229.508636,37.510429 225.226868,38.453682 219.444244,35.519779 
z"/>
<path fill="#23292C" opacity="1.000000" stroke="none" 
	d="
M55.675934,111.140015 
	C55.939049,111.792717 55.879799,112.383263 55.715118,113.406792 
	C41.997581,110.833923 32.254456,102.868492 25.462254,91.120316 
	C25.865076,90.633644 26.267900,90.146965 26.670725,89.660294 
	C27.804844,90.793480 29.155933,91.779823 30.038237,93.083443 
	C36.244324,102.253014 44.791618,108.067589 55.675934,111.140015 
z"/>
<path fill="#161C20" opacity="1.000000" stroke="none" 
	d="
M53.289108,29.414383 
	C55.064411,28.276499 56.734890,26.388441 58.632149,26.123335 
	C70.325737,24.489378 81.442177,26.230412 91.100632,33.379547 
	C90.300186,34.133862 89.893280,34.374706 89.486366,34.615551 
	C79.402863,29.084364 68.766045,26.857119 57.339088,29.128775 
	C56.235413,29.348183 55.042717,29.119816 53.556690,29.238785 
	C53.222034,29.378258 53.289108,29.414383 53.289108,29.414383 
z"/>
<path fill="#252C2F" opacity="1.000000" stroke="none" 
	d="
M53.209450,29.342308 
	C51.690022,30.224447 50.261345,31.317766 48.663002,32.030712 
	C41.187996,35.364967 35.138199,40.369484 30.389421,47.027039 
	C29.176809,48.727070 27.648088,50.201622 25.469559,51.300430 
	C25.902428,49.991982 26.099779,48.537582 26.805758,47.398384 
	C32.038609,38.954418 39.224628,32.731731 48.488071,29.073414 
	C49.642670,28.617441 51.162811,29.087080 52.901340,29.271107 
	C53.289108,29.414383 53.222034,29.378258 53.209450,29.342308 
z"/>
<path fill="#3C4244" opacity="1.000000" stroke="none" 
	d="
M229.378510,89.877243 
	C229.112640,75.850334 229.222076,61.693775 229.436508,47.040047 
	C229.967514,47.916649 230.751846,49.287464 230.763260,50.664677 
	C230.860840,62.438812 230.850281,74.214325 230.771133,85.988747 
	C230.762680,87.243927 230.108459,88.494759 229.378510,89.877243 
z"/>
<path fill="#030D11" opacity="1.000000" stroke="none" 
	d="
M220.531967,46.804207 
	C220.918716,60.603905 220.943130,74.693977 220.967987,89.231735 
	C220.581100,89.011497 219.853897,88.342232 219.856567,87.675880 
	C219.910751,74.148582 220.048569,60.621620 220.531967,46.804207 
z"/>
<path fill="#000000" opacity="1.000000" stroke="none" 
	d="
M239.095184,48.505386 
	C239.465088,50.115383 239.965332,52.181381 239.963348,54.246891 
	C239.952698,65.264702 239.816452,76.282394 239.464417,87.616684 
	C239.134705,74.942543 239.064224,61.951855 239.095184,48.505386 
z"/>
<path fill="#1E2427" opacity="1.000000" stroke="none" 
	d="
M49.652878,34.992073 
	C52.366947,35.315536 54.748623,35.600647 57.105408,36.024235 
	C58.426865,36.261742 59.707134,36.728439 60.677361,37.753998 
	C58.976608,37.753998 57.275856,37.753998 54.827648,37.897354 
	C52.116455,38.053219 50.152718,38.065727 48.188980,38.078239 
	C47.344429,37.851143 46.499878,37.624050 45.460396,37.225037 
	C46.613670,36.372623 47.961872,35.692127 49.652878,34.992073 
z"/>
<path fill="#161C20" opacity="1.000000" stroke="none" 
	d="
M98.627457,38.681141 
	C102.215729,42.140408 105.998726,45.483791 105.650948,51.380844 
	C102.961060,47.972576 100.271179,44.564304 97.782593,40.426384 
	C98.198410,39.358200 98.412933,39.019669 98.627457,38.681141 
z"/>
<path fill="#021116" opacity="1.000000" stroke="none" 
	d="
M249.919662,80.507385 
	C249.568787,76.939972 249.090790,72.912170 249.043976,68.879364 
	C248.973511,62.811489 249.204742,56.740112 249.573242,50.356049 
	C249.887680,60.042835 249.936615,70.043800 249.919662,80.507385 
z"/>
<path fill="#031116" opacity="1.000000" stroke="none" 
	d="
M284.484497,90.972549 
	C291.799042,90.706665 299.575195,90.517387 307.658600,90.604050 
	C300.292603,90.936378 292.619354,90.992775 284.484497,90.972549 
z"/>
<path fill="#021116" opacity="1.000000" stroke="none" 
	d="
M244.482895,90.973877 
	C251.798111,90.709846 259.575348,90.520866 267.660217,90.607468 
	C260.293518,90.938339 252.619217,90.993637 244.482895,90.973877 
z"/>
<path fill="#161C20" opacity="1.000000" stroke="none" 
	d="
M93.447868,34.278896 
	C95.072952,35.559235 96.698036,36.839573 98.475288,38.400528 
	C98.412933,39.019669 98.198410,39.358200 97.585510,40.146961 
	C95.706429,39.420071 94.225723,38.242947 92.886963,36.281708 
	C93.168549,35.091362 93.308212,34.685127 93.447868,34.278896 
z"/>
<path fill="#1E2427" opacity="1.000000" stroke="none" 
	d="
M89.731262,93.497482 
	C90.010025,92.335716 90.146217,91.418762 90.282417,90.501816 
	C90.700363,90.560799 91.118309,90.619789 91.536247,90.678780 
	C91.202087,92.328705 90.867920,93.978638 90.277802,95.809830 
	C89.877464,95.241501 89.733078,94.491905 89.731262,93.497482 
z"/>
<path fill="#161C20" opacity="1.000000" stroke="none" 
	d="
M91.381912,33.674644 
	C92.469421,33.648895 92.882111,33.841518 93.371338,34.156517 
	C93.308212,34.685127 93.168549,35.091362 92.678291,36.038223 
	C91.511627,36.066795 90.695572,35.554737 89.682938,34.829117 
	C89.893280,34.374706 90.300186,34.133862 91.381912,33.674644 
z"/>
<path fill="#3C4244" opacity="1.000000" stroke="none" 
	d="
M229.119965,46.326996 
	C228.583984,46.331253 227.859177,46.114529 227.045242,45.576660 
	C227.614456,45.539017 228.272812,45.822517 229.119965,46.326996 
z"/>
<path fill="#353A3D" opacity="1.000000" stroke="none" 
	d="
M176.963409,89.366440 
	C177.491928,89.333855 178.065384,89.630478 178.690292,90.256531 
	C178.163940,90.289200 177.586136,89.992424 176.963409,89.366440 
z"/>
<path fill="#353A3D" opacity="1.000000" stroke="none" 
	d="
M186.464600,46.841675 
	C186.110764,46.924801 185.621704,46.796795 185.044968,46.417175 
	C185.414658,46.320553 185.871994,46.475552 186.464600,46.841675 
z"/>
<path fill="#1E2427" opacity="1.000000" stroke="none" 
	d="
M83.992111,71.261810 
	C84.100296,71.188370 84.292633,71.348831 84.456284,71.534569 
	C84.471817,71.552193 84.307594,71.728203 84.039276,71.894958 
	C83.923927,71.807060 83.996132,71.654884 83.992111,71.261810 
z"/>
<path fill="#353A3D" opacity="1.000000" stroke="none" 
	d="
M176.860992,47.052032 
	C177.322617,47.162754 177.349396,47.417114 176.878296,47.778252 
	C176.505371,47.613018 176.520599,47.383228 176.860992,47.052032 
z"/>
<path fill="#1E2427" opacity="1.000000" stroke="none" 
	d="
M71.984543,71.738052 
	C71.957901,71.710686 71.830338,71.445534 71.878006,71.096313 
	C71.996704,71.174934 71.940155,71.337601 71.984543,71.738052 
z"/>
<path fill="#353A3D" opacity="1.000000" stroke="none" 
	d="
M178.604553,45.542290 
	C178.820984,45.948502 178.646362,46.177467 178.067200,46.120956 
	C177.977844,45.749428 178.161453,45.592613 178.604553,45.542290 
z"/>
<path fill="#252B2F" opacity="1.000000" stroke="none" 
	d="
M107.446777,51.526260 
	C107.502296,51.545124 107.391266,51.507393 107.446777,51.526260 
z"/>
<path fill="#F1F2F2" opacity="1.000000" stroke="none" 
	d="
M48.244064,38.466080 
	C50.152718,38.065727 52.116455,38.053219 54.501728,38.035313 
	C54.936852,46.480640 54.940311,54.931400 54.967060,63.382084 
	C54.990742,70.863571 55.296066,71.149841 62.891457,71.124443 
	C63.554188,71.122231 64.216972,71.136383 65.355057,71.320328 
	C65.830376,71.497719 65.731865,71.918846 65.731865,71.918846 
	C65.279129,73.542725 64.068359,75.414467 64.504318,76.747765 
	C66.436707,82.657524 68.841789,88.412720 71.514519,94.653702 
	C72.320343,95.382210 72.687485,95.680862 73.054634,95.979515 
	C72.134773,98.600563 71.214912,101.221603 69.775856,105.322052 
	C66.576668,96.954224 63.542118,90.098915 61.347775,82.984459 
	C58.977573,75.299820 56.117912,69.062637 47.595139,71.858406 
	C50.805622,61.003910 50.445614,49.983742 48.244064,38.466080 
z"/>
<path fill="#EDEEEE" opacity="1.000000" stroke="none" 
	d="
M72.224579,43.179855 
	C73.895164,47.314373 73.480621,50.991344 70.465149,53.623692 
	C67.480118,56.229458 64.159096,59.161537 59.338451,56.396336 
	C64.091476,55.573967 67.140663,53.045258 67.774857,48.351978 
	C68.371574,43.936001 66.447929,40.676430 62.030579,38.505390 
	C66.994606,37.030468 69.760651,39.380112 72.224579,43.179855 
z"/>
<path fill="#1E2427" opacity="1.000000" stroke="none" 
	d="
M93.621323,70.101219 
	C96.318153,70.036102 98.621857,70.036102 102.129501,70.036102 
	C99.937668,72.461571 98.396950,74.166519 96.856232,75.871468 
	C97.816719,72.541267 90.566811,74.355286 93.621323,70.101219 
z"/>
<path fill="#1E2427" opacity="1.000000" stroke="none" 
	d="
M73.328392,95.764069 
	C72.687485,95.680862 72.320343,95.382210 71.828033,94.865570 
	C72.872963,92.467506 74.043053,90.287437 75.595688,88.045113 
	C75.978233,87.982849 76.051407,88.032051 76.051407,88.032051 
	C75.234985,90.537575 74.418571,93.043091 73.328392,95.764069 
z"/>
<path fill="#1E2427" opacity="1.000000" stroke="none" 
	d="
M94.382156,78.847610 
	C94.821732,79.699593 95.149811,80.820946 95.477890,81.942299 
	C94.912483,82.043953 94.347069,82.145599 93.781654,82.247246 
	C93.944664,81.203827 94.107666,80.160408 94.382156,78.847610 
z"/>
<path fill="#1E2427" opacity="1.000000" stroke="none" 
	d="
M75.942032,87.957680 
	C75.938774,87.381546 75.971718,86.830582 76.004669,86.279617 
	C76.154358,86.760498 76.304039,87.241371 76.252563,87.877151 
	C76.051407,88.032051 75.978233,87.982849 75.942032,87.957680 
z"/>
<path fill="#1E2427" opacity="1.000000" stroke="none" 
	d="
M65.933090,71.867348 
	C65.731865,71.918846 65.830376,71.497719 65.785767,71.286079 
	C65.959213,71.216660 66.177277,71.358871 66.395340,71.501091 
	C66.308327,71.606010 66.221321,71.710930 65.933090,71.867348 
z"/>
</svg>